<mxfile host="Electron" agent="Mozilla/5.0 (Windows NT 10.0; Win64; x64) AppleWebKit/537.36 (KHTML, like Gecko) draw.io/26.1.1 Chrome/132.0.6834.210 Electron/34.3.3 Safari/537.36" version="26.1.1">
  <diagram name="Page-1" id="e7e014a7-5840-1c2e-5031-d8a46d1fe8dd">
    <mxGraphModel dx="1050" dy="629" grid="1" gridSize="10" guides="1" tooltips="1" connect="1" arrows="1" fold="1" page="1" pageScale="1" pageWidth="1169" pageHeight="826" background="none" math="0" shadow="0">
      <root>
        <mxCell id="0" />
        <mxCell id="1" parent="0" />
        <mxCell id="8-QnsH4_D7a8rCvhYPWk-41" value="Admin&lt;div&gt;&lt;br&gt;&lt;/div&gt;" style="shape=umlActor;verticalLabelPosition=bottom;verticalAlign=top;html=1;outlineConnect=0;" parent="1" vertex="1">
          <mxGeometry x="430" y="400" width="50" height="90" as="geometry" />
        </mxCell>
        <mxCell id="8-QnsH4_D7a8rCvhYPWk-42" value="&lt;b&gt;&lt;font style=&quot;font-size: 14px;&quot;&gt;TaskManagement&lt;/font&gt;&lt;/b&gt;" style="text;html=1;align=center;verticalAlign=middle;whiteSpace=wrap;rounded=0;" parent="1" vertex="1">
          <mxGeometry x="700" y="220" width="90" height="40" as="geometry" />
        </mxCell>
        <mxCell id="8-QnsH4_D7a8rCvhYPWk-48" value="" style="endArrow=none;dashed=1;html=1;rounded=0;" parent="1" edge="1">
          <mxGeometry width="50" height="50" relative="1" as="geometry">
            <mxPoint x="640" y="710" as="sourcePoint" />
            <mxPoint x="640" y="250" as="targetPoint" />
          </mxGeometry>
        </mxCell>
        <mxCell id="8-QnsH4_D7a8rCvhYPWk-49" value="" style="endArrow=none;dashed=1;html=1;rounded=0;" parent="1" edge="1">
          <mxGeometry width="50" height="50" relative="1" as="geometry">
            <mxPoint x="850" y="720" as="sourcePoint" />
            <mxPoint x="850" y="250" as="targetPoint" />
          </mxGeometry>
        </mxCell>
        <mxCell id="8-QnsH4_D7a8rCvhYPWk-50" value="&lt;font style=&quot;font-size: 15px;&quot;&gt;Add Employee&lt;/font&gt;" style="rounded=1;whiteSpace=wrap;html=1;" parent="1" vertex="1">
          <mxGeometry x="660" y="260" width="170" height="60" as="geometry" />
        </mxCell>
        <mxCell id="8-QnsH4_D7a8rCvhYPWk-52" value="&lt;font style=&quot;font-size: 15px;&quot;&gt;Add Task&lt;/font&gt;" style="rounded=1;whiteSpace=wrap;html=1;" parent="1" vertex="1">
          <mxGeometry x="660" y="350" width="170" height="60" as="geometry" />
        </mxCell>
        <mxCell id="8-QnsH4_D7a8rCvhYPWk-54" value="&lt;font style=&quot;font-size: 15px;&quot;&gt;Assign Task&lt;/font&gt;" style="rounded=1;whiteSpace=wrap;html=1;" parent="1" vertex="1">
          <mxGeometry x="660" y="440" width="170" height="60" as="geometry" />
        </mxCell>
        <mxCell id="8-QnsH4_D7a8rCvhYPWk-55" value="&lt;font style=&quot;font-size: 15px;&quot;&gt;Modify Status&lt;/font&gt;" style="rounded=1;whiteSpace=wrap;html=1;" parent="1" vertex="1">
          <mxGeometry x="660" y="530" width="170" height="60" as="geometry" />
        </mxCell>
        <mxCell id="8-QnsH4_D7a8rCvhYPWk-57" value="&lt;font style=&quot;font-size: 15px;&quot;&gt;Add Subtask&lt;/font&gt;" style="rounded=1;whiteSpace=wrap;html=1;" parent="1" vertex="1">
          <mxGeometry x="660" y="620" width="170" height="60" as="geometry" />
        </mxCell>
        <mxCell id="8-QnsH4_D7a8rCvhYPWk-59" value="&lt;b&gt;&lt;font style=&quot;font-size: 14px;&quot;&gt;Utility&lt;/font&gt;&lt;/b&gt;" style="text;html=1;align=center;verticalAlign=middle;whiteSpace=wrap;rounded=0;" parent="1" vertex="1">
          <mxGeometry x="160" y="365" width="90" height="40" as="geometry" />
        </mxCell>
        <mxCell id="8-QnsH4_D7a8rCvhYPWk-60" value="" style="endArrow=none;dashed=1;html=1;rounded=0;" parent="1" edge="1">
          <mxGeometry width="50" height="50" relative="1" as="geometry">
            <mxPoint x="110" y="525" as="sourcePoint" />
            <mxPoint x="110" y="405" as="targetPoint" />
          </mxGeometry>
        </mxCell>
        <mxCell id="8-QnsH4_D7a8rCvhYPWk-61" value="" style="endArrow=none;dashed=1;html=1;rounded=0;" parent="1" edge="1">
          <mxGeometry width="50" height="50" relative="1" as="geometry">
            <mxPoint x="320" y="525" as="sourcePoint" />
            <mxPoint x="320" y="405" as="targetPoint" />
          </mxGeometry>
        </mxCell>
        <mxCell id="8-QnsH4_D7a8rCvhYPWk-63" value="&lt;font style=&quot;font-size: 15px;&quot;&gt;Filter Employees&lt;/font&gt;" style="rounded=1;whiteSpace=wrap;html=1;" parent="1" vertex="1">
          <mxGeometry x="130" y="425" width="170" height="60" as="geometry" />
        </mxCell>
        <mxCell id="8-QnsH4_D7a8rCvhYPWk-64" value="" style="endArrow=classic;html=1;rounded=0;fontSize=21;" parent="1" edge="1">
          <mxGeometry width="50" height="50" relative="1" as="geometry">
            <mxPoint x="410" y="469.5" as="sourcePoint" />
            <mxPoint x="330" y="469.5" as="targetPoint" />
          </mxGeometry>
        </mxCell>
        <mxCell id="8-QnsH4_D7a8rCvhYPWk-67" value="" style="endArrow=none;html=1;rounded=0;" parent="1" edge="1">
          <mxGeometry width="50" height="50" relative="1" as="geometry">
            <mxPoint x="560" y="650" as="sourcePoint" />
            <mxPoint x="560" y="290" as="targetPoint" />
          </mxGeometry>
        </mxCell>
        <mxCell id="8-QnsH4_D7a8rCvhYPWk-68" value="" style="endArrow=none;html=1;rounded=0;" parent="1" edge="1">
          <mxGeometry width="50" height="50" relative="1" as="geometry">
            <mxPoint x="500" y="469.5" as="sourcePoint" />
            <mxPoint x="560" y="469.5" as="targetPoint" />
          </mxGeometry>
        </mxCell>
        <mxCell id="8-QnsH4_D7a8rCvhYPWk-69" value="" style="endArrow=classic;html=1;rounded=0;" parent="1" edge="1">
          <mxGeometry width="50" height="50" relative="1" as="geometry">
            <mxPoint x="560" y="290" as="sourcePoint" />
            <mxPoint x="640" y="290" as="targetPoint" />
          </mxGeometry>
        </mxCell>
        <mxCell id="8-QnsH4_D7a8rCvhYPWk-70" value="" style="endArrow=classic;html=1;rounded=0;" parent="1" edge="1">
          <mxGeometry width="50" height="50" relative="1" as="geometry">
            <mxPoint x="560" y="379.5" as="sourcePoint" />
            <mxPoint x="640" y="380" as="targetPoint" />
          </mxGeometry>
        </mxCell>
        <mxCell id="8-QnsH4_D7a8rCvhYPWk-71" value="" style="endArrow=classic;html=1;rounded=0;" parent="1" edge="1">
          <mxGeometry width="50" height="50" relative="1" as="geometry">
            <mxPoint x="560" y="469.5" as="sourcePoint" />
            <mxPoint x="640" y="470" as="targetPoint" />
          </mxGeometry>
        </mxCell>
        <mxCell id="8-QnsH4_D7a8rCvhYPWk-72" value="" style="endArrow=classic;html=1;rounded=0;" parent="1" edge="1">
          <mxGeometry width="50" height="50" relative="1" as="geometry">
            <mxPoint x="560" y="559.5" as="sourcePoint" />
            <mxPoint x="640" y="560" as="targetPoint" />
          </mxGeometry>
        </mxCell>
        <mxCell id="8-QnsH4_D7a8rCvhYPWk-73" value="" style="endArrow=classic;html=1;rounded=0;" parent="1" edge="1">
          <mxGeometry width="50" height="50" relative="1" as="geometry">
            <mxPoint x="560" y="649.5" as="sourcePoint" />
            <mxPoint x="640" y="650" as="targetPoint" />
          </mxGeometry>
        </mxCell>
      </root>
    </mxGraphModel>
  </diagram>
</mxfile>
